# xmcd
#
# Track frame offsets: 
#        150
#        28300
#        47297
#        76350
#        105948
#        127612
#        172249
#
# Disc length: 2421 seconds
#
# Revision: 0
# Processed by: cddbd v1.5.2PL0 Copyright (c) Steve Scherf et al.
# Submitted via: ExactAudioCopy v0.99pb5
#
DISCID=4a097307
DTITLE=New Miminokoto - All About Mimi
DYEAR=2009
DGENRE=Psychedelic Rock
TTITLE0=Hour Of Death
TTITLE1=Remember
TTITLE2=That Spiral Orbit
TTITLE3=Farside Of The Dream
TTITLE4=1 - 3 - 5
TTITLE5=Wrong Distance
TTITLE6=Choji Romen
EXTD=
EXTT0=
EXTT1=
EXTT2=
EXTT3=
EXTT4=
EXTT5=
EXTT6=
PLAYORDER=
